<svg xmlns="http://www.w3.org/2000/svg" xmlns:xlink="http://www.w3.org/1999/xlink" width="920" height="667.88"><rect width="920" height="667.88" rx="5" ry="5" class="a"/><svg y="0%" x="0%"><circle cx="20" cy="20" r="6" fill="#ff5f58"/><circle cx="40" cy="20" r="6" fill="#ffbd2e"/><circle cx="60" cy="20" r="6" fill="#18c132"/></svg><svg height="607.88" viewBox="0 0 88 60.788" width="880" x="15" xmlns="http://www.w3.org/2000/svg" xmlns:xlink="http://www.w3.org/1999/xlink" y="50"><style>@keyframes l{0%{transform:translateX(0)}.2%{transform:translateX(-88px)}16.4%{transform:translateX(-616px)}32.6%{transform:translateX(-704px)}39.5%{transform:translateX(-1232px)}55.7%{transform:translateX(-1320px)}62.8%{transform:translateX(-1408px)}75.2%{transform:translateX(-1496px)}83.8%{transform:translateX(-1584px)}}.a{fill:rgb(25,29,39,242)}.f,.g,.h,.i{fill:#e0e0e0;white-space:pre}.g,.h,.i{fill:#6caa71}.h,.i{fill:#c4ac62}.i{fill:#7ccbcd}</style><g font-family="Monaco,Consolas,Menlo,'Bitstream Vera Sans Mono','Powerline Symbols',monospace" font-size="1.67"><defs><symbol id="1"><text y="1.67" class="f">$</text><text x="2.004" y="1.67" class="f">oe</text><text x="5.01" y="1.67" class="f">doctor</text></symbol><symbol id="2"><text y="1.67" class="g">✓</text><text x="2.004" y="1.67" class="f">Node</text><text x="7.014" y="1.67" class="f">version:</text><text x="16.032" y="1.67" class="f">v26.0.0</text><text x="24.048" y="1.67" class="f">(≥</text><text x="27.054" y="1.67" class="f">20.0.0)</text></symbol><symbol id="3"><text y="1.67" class="g">✓</text><text x="2.004" y="1.67" class="f">pnpm:</text><text x="8.016" y="1.67" class="f">11.0.9</text></symbol><symbol id="4"><text y="1.67" class="g">✓</text><text x="2.004" y="1.67" class="f">claude</text><text x="9.018" y="1.67" class="f">CLI:</text><text x="14.028" y="1.67" class="f">2.1.142</text><text x="22.044" y="1.67" class="f">(Claude</text><text x="30.06" y="1.67" class="f">Code)</text></symbol><symbol id="5"><text y="1.67" class="g">✓</text><text x="2.004" y="1.67" class="f">codex</text><text x="8.016" y="1.67" class="f">CLI:</text><text x="13.026" y="1.67" class="f">codex-cli</text><text x="23.046" y="1.67" class="f">0.133.0</text></symbol><symbol id="6"><text y="1.67" class="g">✓</text><text x="2.004" y="1.67" class="f">gemini</text><text x="9.018" y="1.67" class="f">CLI:</text><text x="14.028" y="1.67" class="f">0.43.0</text></symbol><symbol id="7"><text y="1.67" class="h">⚠</text><text x="2.004" y="1.67" class="f">ANTHROPIC_API_KEY:</text><text x="21.042" y="1.67" class="f">not</text><text x="25.05" y="1.67" class="f">set</text></symbol><symbol id="8"><text y="1.67" class="h">⚠</text><text x="2.004" y="1.67" class="f">OPENAI_API_KEY:</text><text x="18.036" y="1.67" class="f">not</text><text x="22.044" y="1.67" class="f">set</text><text x="26.052" y="1.67" class="f">—</text><text x="28.056" y="1.67" class="f">at</text><text x="31.062" y="1.67" class="f">least</text><text x="37.074" y="1.67" class="f">one</text><text x="41.082" y="1.67" class="f">LLM</text><text x="45.09" y="1.67" class="f">API</text><text x="49.098" y="1.67" class="f">key</text><text x="53.106" y="1.67" class="f">is</text><text x="56.112" y="1.67" class="f">required</text><text x="65.13" y="1.67" class="f">for</text><text x="69.138" y="1.67" class="f">agent/evolve/ultra</text></symbol><symbol id="9"><text y="1.67" class="f">commands</text></symbol><symbol id="10"><text y="1.67" class="g">✓</text><text x="2.004" y="1.67" class="f">.openexpertise/</text><text x="18.036" y="1.67" class="f">writable:</text><text x="28.056" y="1.67" class="f">directory</text><text x="38.076" y="1.67" class="f">is</text><text x="41.082" y="1.67" class="f">writable</text></symbol><symbol id="11"><text y="1.67" class="g">✓</text><text x="2.004" y="1.67" class="f">@openexpertise/core</text><text x="22.044" y="1.67" class="f">importable:</text><text x="34.068" y="1.67" class="f">import</text><text x="41.082" y="1.67" class="f">succeeded</text></symbol><symbol id="12"><text y="1.67" class="f">Summary:</text><text x="9.018" y="1.67" class="f">7</text><text x="11.022" y="1.67" class="f">passed</text><text x="18.036" y="1.67" class="f">·</text><text x="20.04" y="1.67" class="f">2</text><text x="22.044" y="1.67" class="f">warnings</text><text x="31.062" y="1.67" class="f">·</text><text x="33.066" y="1.67" class="f">0</text><text x="35.07" y="1.67" class="f">failures</text></symbol><symbol id="13"><text y="1.67" class="f">$</text><text x="2.004" y="1.67" class="f">oe</text><text x="5.01" y="1.67" class="f">registry</text></symbol><symbol id="14"><text y="1.67" class="f">OpenExpertise</text><text x="14.028" y="1.67" class="f">registry</text><text x="23.046" y="1.67" class="f">(v1,</text><text x="28.056" y="1.67" class="f">updated</text><text x="36.072" y="1.67" class="f">2026-05-27)</text></symbol><symbol id="15"><text y="1.67" class="f">5</text><text x="2.004" y="1.67" class="f">curated</text><text x="10.02" y="1.67" class="f">experiences:</text></symbol><symbol id="16"><text x="2.004" y="1.67" class="f">deep-research</text><text x="16.032" y="1.67" class="f">@</text><text x="18.036" y="1.67" class="f">v0.1.0</text></symbol><symbol id="17"><text x="4.008" y="1.67" class="f">Multi-vendor</text><text x="17.034" y="1.67" class="f">deep</text><text x="22.044" y="1.67" class="f">research:</text><text x="32.064" y="1.67" class="f">Claude</text><text x="39.078" y="1.67" class="f">Code</text><text x="44.088" y="1.67" class="f">WebSearch</text><text x="54.108" y="1.67" class="f">+</text><text x="56.112" y="1.67" class="f">Gemini</text><text x="63.126" y="1.67" class="f">Google</text><text x="70.14" y="1.67" class="f">Search</text><text x="77.154" y="1.67" class="f">→</text><text x="79.158" y="1.67" class="f">cited</text><text x="85.17" y="1.67" class="f">syn</text></symbol><symbol id="18"><text y="1.67" class="f">thesis.</text></symbol><symbol id="19"><text x="4.008" y="1.67" class="f">tags:</text><text x="10.02" y="1.67" class="f">research,</text><text x="20.04" y="1.67" class="f">multi-vendor,</text><text x="34.068" y="1.67" class="f">cli-agent</text></symbol><symbol id="20"><text x="4.008" y="1.67" class="f">install:</text><text x="13.026" y="1.67" class="f">oe</text><text x="16.032" y="1.67" class="f">install</text><text x="24.048" y="1.67" class="f">deep-research</text></symbol><symbol id="21"><text x="2.004" y="1.67" class="f">systematic-debugging</text><text x="23.046" y="1.67" class="f">@</text><text x="25.05" y="1.67" class="f">v0.1.0</text></symbol><symbol id="22"><text x="4.008" y="1.67" class="f">The</text><text x="8.016" y="1.67" class="f">superpowers</text><text x="20.04" y="1.67" class="f">systematic-debugging</text><text x="41.082" y="1.67" class="f">skill</text><text x="47.094" y="1.67" class="f">as</text><text x="50.1" y="1.67" class="f">a</text><text x="52.104" y="1.67" class="f">YAML</text><text x="57.114" y="1.67" class="f">flow.</text></symbol><symbol id="23"><text x="4.008" y="1.67" class="f">tags:</text><text x="10.02" y="1.67" class="f">debugging,</text><text x="21.042" y="1.67" class="f">skill,</text><text x="28.056" y="1.67" class="f">cli-agent</text></symbol><symbol id="24"><text x="4.008" y="1.67" class="f">install:</text><text x="13.026" y="1.67" class="f">oe</text><text x="16.032" y="1.67" class="f">install</text><text x="24.048" y="1.67" class="f">systematic-debugging</text></symbol><symbol id="25"><text x="2.004" y="1.67" class="f">brainstorming</text><text x="16.032" y="1.67" class="f">@</text><text x="18.036" y="1.67" class="f">v0.1.0</text></symbol><symbol id="26"><text x="4.008" y="1.67" class="f">The</text><text x="8.016" y="1.67" class="f">superpowers</text><text x="20.04" y="1.67" class="f">brainstorming</text><text x="34.068" y="1.67" class="f">skill:</text><text x="41.082" y="1.67" class="f">diverge</text><text x="49.098" y="1.67" class="f">→</text><text x="51.102" y="1.67" class="f">cluster</text><text x="59.118" y="1.67" class="f">→</text><text x="61.122" y="1.67" class="f">critique</text><text x="70.14" y="1.67" class="f">→</text><text x="72.144" y="1.67" class="f">synthesize</text><text x="83.166" y="1.67" class="f">top</text><text x="87.174" y="1.67" class="f">3</text></symbol><symbol id="27"><text y="1.67" class="f">.</text></symbol><symbol id="28"><text x="4.008" y="1.67" class="f">tags:</text><text x="10.02" y="1.67" class="f">ideation,</text><text x="20.04" y="1.67" class="f">skill,</text><text x="27.054" y="1.67" class="f">cli-agent</text></symbol><symbol id="29"><text x="4.008" y="1.67" class="f">install:</text><text x="13.026" y="1.67" class="f">oe</text><text x="16.032" y="1.67" class="f">install</text><text x="24.048" y="1.67" class="f">brainstorming</text></symbol><symbol id="30"><text x="2.004" y="1.67" class="f">review-branch</text><text x="16.032" y="1.67" class="f">@</text><text x="18.036" y="1.67" class="f">v0.1.0</text></symbol><symbol id="31"><text x="4.008" y="1.67" class="f">Multi-dim</text><text x="14.028" y="1.67" class="f">code</text><text x="19.038" y="1.67" class="f">review</text><text x="26.052" y="1.67" class="f">+</text><text x="28.056" y="1.67" class="f">verifier</text><text x="37.074" y="1.67" class="f">+</text><text x="39.078" y="1.67" class="f">score</text><text x="45.09" y="1.67" class="f">+</text><text x="47.094" y="1.67" class="f">advisor</text><text x="55.11" y="1.67" class="f">evolution.</text></symbol><symbol id="32"><text x="4.008" y="1.67" class="f">tags:</text><text x="10.02" y="1.67" class="f">code-review,</text><text x="23.046" y="1.67" class="f">hero,</text><text x="29.058" y="1.67" class="f">agent</text></symbol><symbol id="33"><text x="4.008" y="1.67" class="f">install:</text><text x="13.026" y="1.67" class="f">oe</text><text x="16.032" y="1.67" class="f">install</text><text x="24.048" y="1.67" class="f">review-branch</text></symbol><symbol id="34"><text x="2.004" y="1.67" class="f">tri-cli-orchestration</text><text x="24.048" y="1.67" class="f">@</text><text x="26.052" y="1.67" class="f">v0.1.0</text></symbol><symbol id="35"><text x="4.008" y="1.67" class="f">Claude</text><text x="11.022" y="1.67" class="f">→</text><text x="13.026" y="1.67" class="f">Codex</text><text x="19.038" y="1.67" class="f">→</text><text x="21.042" y="1.67" class="f">Gemini</text><text x="28.056" y="1.67" class="f">in</text><text x="31.062" y="1.67" class="f">one</text><text x="35.07" y="1.67" class="f">DAG.</text></symbol><symbol id="36"><text x="4.008" y="1.67" class="f">tags:</text><text x="10.02" y="1.67" class="f">multi-vendor,</text><text x="24.048" y="1.67" class="f">cli-agent,</text><text x="35.07" y="1.67" class="f">hero</text></symbol><symbol id="37"><text x="4.008" y="1.67" class="f">install:</text><text x="13.026" y="1.67" class="f">oe</text><text x="16.032" y="1.67" class="f">install</text><text x="24.048" y="1.67" class="f">tri-cli-orchestration</text></symbol><symbol id="38"><text y="1.67" class="f">$</text><text x="2.004" y="1.67" class="f">oe</text><text x="5.01" y="1.67" class="f">init</text><text x="10.02" y="1.67" class="f">demo-init</text><text x="20.04" y="1.67" class="f">&amp;&amp;</text><text x="23.046" y="1.67" class="f">cd</text><text x="26.052" y="1.67" class="f">demo-init</text></symbol><symbol id="39"><text y="1.67" class="f">[12:51:07]</text><text x="11.022" y="1.67" class="g">INFO</text><text x="16.032" y="1.67" class="f">(96389):</text><text x="25.05" y="1.67" class="i">experience</text><text x="36.072" y="1.67" class="i">scaffolded</text></symbol><symbol id="40"><text x="4.008" y="1.67" class="f">dir:</text><text x="9.018" y="1.67" class="f">&quot;/private/tmp/oe-demo-rec/demo-init&quot;</text></symbol><symbol id="41"><text y="1.67" class="f">$</text><text x="2.004" y="1.67" class="f">oe</text><text x="5.01" y="1.67" class="f">run</text><text x="9.018" y="1.67" class="f">.</text></symbol><symbol id="42"><text x="4.008" y="1.67" class="f">run_id:</text><text x="12.024" y="1.67" class="f">&quot;e1cdbddc-890d-4a75-8b0b-5a6852b15c97&quot;</text></symbol><symbol id="43"><text x="4.008" y="1.67" class="f">node_id:</text><text x="13.026" y="1.67" class="f">&quot;hello&quot;</text></symbol><symbol id="44"><text x="4.008" y="1.67" class="f">ts:</text><text x="8.016" y="1.67" class="f">&quot;2026-05-27T12:51:09.148Z&quot;</text></symbol><symbol id="45"><text x="4.008" y="1.67" class="f">status:</text><text x="12.024" y="1.67" class="f">&quot;success&quot;</text></symbol><symbol id="a"><path fill="transparent" d="M0 0h88v29H0z"/></symbol><symbol id="b"><path fill="#929292" d="M0 0h1.102v2.171H0z"/></symbol></defs><path class="a" d="M0 0h88v60.788H0z"/><g style="animation-duration:9.256s;animation-iteration-count:infinite;animation-name:l;animation-timing-function:steps(1,end)"><svg width="1672"><svg><use xlink:href="#a"/><use xlink:href="#b" x="-.004"/></svg><svg x="88"><use xlink:href="#a"/><use xlink:href="#b" x="-.004" y="2.146"/><use xlink:href="#1"/></svg><svg x="176"><use xlink:href="#a"/><use xlink:href="#b" x="-.004" y="4.317"/><use xlink:href="#1"/><use xlink:href="#2" y="2.171"/></svg><svg x="264"><use xlink:href="#a"/><use xlink:href="#b" x="-.004" y="8.659"/><use xlink:href="#1"/><use xlink:href="#2" y="2.171"/><use xlink:href="#3" y="4.342"/><use xlink:href="#4" y="6.513"/></svg><svg x="352"><use xlink:href="#a"/><use xlink:href="#b" x="-.004" y="10.83"/><use xlink:href="#1"/><use xlink:href="#2" y="2.171"/><use xlink:href="#3" y="4.342"/><use xlink:href="#4" y="6.513"/><use xlink:href="#5" y="8.684"/></svg><svg x="440"><use xlink:href="#a"/><use xlink:href="#b" x="-.004" y="23.856"/><use xlink:href="#1"/><use xlink:href="#2" y="2.171"/><use xlink:href="#3" y="4.342"/><use xlink:href="#4" y="6.513"/><use xlink:href="#5" y="8.684"/><use xlink:href="#6" y="10.855"/><use xlink:href="#7" y="13.026"/><use xlink:href="#8" y="15.197"/><use xlink:href="#9" y="17.368"/><use xlink:href="#10" y="19.539"/><use xlink:href="#11" y="21.71"/></svg><svg x="528"><use xlink:href="#a"/><use xlink:href="#b" x="-.004" y="26.027"/><use xlink:href="#1"/><use xlink:href="#2" y="2.171"/><use xlink:href="#3" y="4.342"/><use xlink:href="#4" y="6.513"/><use xlink:href="#5" y="8.684"/><use xlink:href="#6" y="10.855"/><use xlink:href="#7" y="13.026"/><use xlink:href="#8" y="15.197"/><use xlink:href="#9" y="17.368"/><use xlink:href="#10" y="19.539"/><use xlink:href="#11" y="21.71"/></svg><svg x="616"><use xlink:href="#a"/><use xlink:href="#b" x="-.004" y="28.198"/><use xlink:href="#1"/><use xlink:href="#2" y="2.171"/><use xlink:href="#3" y="4.342"/><use xlink:href="#4" y="6.513"/><use xlink:href="#5" y="8.684"/><use xlink:href="#6" y="10.855"/><use xlink:href="#7" y="13.026"/><use xlink:href="#8" y="15.197"/><use xlink:href="#9" y="17.368"/><use xlink:href="#10" y="19.539"/><use xlink:href="#11" y="21.71"/><use xlink:href="#12" y="26.052"/></svg><svg x="704"><use xlink:href="#a"/><use xlink:href="#b" x="-.004" y="32.54"/><use xlink:href="#1"/><use xlink:href="#2" y="2.171"/><use xlink:href="#3" y="4.342"/><use xlink:href="#4" y="6.513"/><use xlink:href="#5" y="8.684"/><use xlink:href="#6" y="10.855"/><use xlink:href="#7" y="13.026"/><use xlink:href="#8" y="15.197"/><use xlink:href="#9" y="17.368"/><use xlink:href="#10" y="19.539"/><use xlink:href="#11" y="21.71"/><use xlink:href="#12" y="26.052"/><use xlink:href="#13" y="30.394"/></svg><svg x="792"><use xlink:href="#a"/><use xlink:href="#b" x="-.004" y="34.711"/><use xlink:href="#1"/><use xlink:href="#2" y="2.171"/><use xlink:href="#3" y="4.342"/><use xlink:href="#4" y="6.513"/><use xlink:href="#5" y="8.684"/><use xlink:href="#6" y="10.855"/><use xlink:href="#7" y="13.026"/><use xlink:href="#8" y="15.197"/><use xlink:href="#9" y="17.368"/><use xlink:href="#10" y="19.539"/><use xlink:href="#11" y="21.71"/><use xlink:href="#12" y="26.052"/><use xlink:href="#13" y="30.394"/><use xlink:href="#14" y="32.565"/></svg><svg x="880"><use xlink:href="#a"/><use xlink:href="#b" x="-.004" y="41.224"/><use xlink:href="#1"/><use xlink:href="#2" y="2.171"/><use xlink:href="#3" y="4.342"/><use xlink:href="#4" y="6.513"/><use xlink:href="#5" y="8.684"/><use xlink:href="#6" y="10.855"/><use xlink:href="#7" y="13.026"/><use xlink:href="#8" y="15.197"/><use xlink:href="#9" y="17.368"/><use xlink:href="#10" y="19.539"/><use xlink:href="#11" y="21.71"/><use xlink:href="#12" y="26.052"/><use xlink:href="#13" y="30.394"/><use xlink:href="#14" y="32.565"/><use xlink:href="#15" y="34.736"/><use xlink:href="#16" y="39.078"/></svg><svg x="968"><use xlink:href="#a"/><use xlink:href="#b" x="-.004" y="45.566"/><use xlink:href="#1"/><use xlink:href="#2" y="2.171"/><use xlink:href="#3" y="4.342"/><use xlink:href="#4" y="6.513"/><use xlink:href="#5" y="8.684"/><use xlink:href="#6" y="10.855"/><use xlink:href="#7" y="13.026"/><use xlink:href="#8" y="15.197"/><use xlink:href="#9" y="17.368"/><use xlink:href="#10" y="19.539"/><use xlink:href="#11" y="21.71"/><use xlink:href="#12" y="26.052"/><use xlink:href="#13" y="30.394"/><use xlink:href="#14" y="32.565"/><use xlink:href="#15" y="34.736"/><use xlink:href="#16" y="39.078"/><use xlink:href="#17" y="41.249"/><use xlink:href="#18" y="43.42"/></svg><svg x="1056"><use xlink:href="#a"/><use xlink:href="#b" x="-.004" y="47.737"/><use xlink:href="#1"/><use xlink:href="#2" y="2.171"/><use xlink:href="#3" y="4.342"/><use xlink:href="#4" y="6.513"/><use xlink:href="#5" y="8.684"/><use xlink:href="#6" y="10.855"/><use xlink:href="#7" y="13.026"/><use xlink:href="#8" y="15.197"/><use xlink:href="#9" y="17.368"/><use xlink:href="#10" y="19.539"/><use xlink:href="#11" y="21.71"/><use xlink:href="#12" y="26.052"/><use xlink:href="#13" y="30.394"/><use xlink:href="#14" y="32.565"/><use xlink:href="#15" y="34.736"/><use xlink:href="#16" y="39.078"/><use xlink:href="#17" y="41.249"/><use xlink:href="#18" y="43.42"/><use xlink:href="#19" y="45.591"/></svg><svg x="1144"><use xlink:href="#a"/><use xlink:href="#b" x="-.004" y="60.763"/><use xlink:href="#3"/><use xlink:href="#4" y="2.171"/><use xlink:href="#5" y="4.342"/><use xlink:href="#6" y="6.513"/><use xlink:href="#7" y="8.684"/><use xlink:href="#8" y="10.855"/><use xlink:href="#9" y="13.026"/><use xlink:href="#10" y="15.197"/><use xlink:href="#11" y="17.368"/><use xlink:href="#12" y="21.71"/><use xlink:href="#13" y="26.052"/><use xlink:href="#14" y="28.223"/><use xlink:href="#15" y="30.394"/><use xlink:href="#16" y="34.736"/><use xlink:href="#17" y="36.907"/><use xlink:href="#18" y="39.078"/><use xlink:href="#19" y="41.249"/><use xlink:href="#20" y="43.42"/><use xlink:href="#21" y="47.762"/><use xlink:href="#22" y="49.933"/><use xlink:href="#23" y="52.104"/><use xlink:href="#24" y="54.275"/><use xlink:href="#25" y="58.617"/></svg><svg x="1232"><use xlink:href="#a"/><use xlink:href="#b" x="-.004" y="60.763"/><use xlink:href="#16" y="2.171"/><use xlink:href="#17" y="4.342"/><use xlink:href="#18" y="6.513"/><use xlink:href="#19" y="8.684"/><use xlink:href="#20" y="10.855"/><use xlink:href="#21" y="15.197"/><use xlink:href="#22" y="17.368"/><use xlink:href="#23" y="19.539"/><use xlink:href="#24" y="21.71"/><use xlink:href="#25" y="26.052"/><use xlink:href="#26" y="28.223"/><use xlink:href="#27" y="30.394"/><use xlink:href="#28" y="32.565"/><use xlink:href="#29" y="34.736"/><use xlink:href="#30" y="39.078"/><use xlink:href="#31" y="41.249"/><use xlink:href="#32" y="43.42"/><use xlink:href="#33" y="45.591"/><use xlink:href="#34" y="49.933"/><use xlink:href="#35" y="52.104"/><use xlink:href="#36" y="54.275"/><use xlink:href="#37" y="56.446"/></svg><svg x="1320"><use xlink:href="#a"/><use xlink:href="#b" x="-.004" y="60.763"/><use xlink:href="#17"/><use xlink:href="#18" y="2.171"/><use xlink:href="#19" y="4.342"/><use xlink:href="#20" y="6.513"/><use xlink:href="#21" y="10.855"/><use xlink:href="#22" y="13.026"/><use xlink:href="#23" y="15.197"/><use xlink:href="#24" y="17.368"/><use xlink:href="#25" y="21.71"/><use xlink:href="#26" y="23.881"/><use xlink:href="#27" y="26.052"/><use xlink:href="#28" y="28.223"/><use xlink:href="#29" y="30.394"/><use xlink:href="#30" y="34.736"/><use xlink:href="#31" y="36.907"/><use xlink:href="#32" y="39.078"/><use xlink:href="#33" y="41.249"/><use xlink:href="#34" y="45.591"/><use xlink:href="#35" y="47.762"/><use xlink:href="#36" y="49.933"/><use xlink:href="#37" y="52.104"/><use xlink:href="#38" y="58.617"/></svg><svg x="1408"><use xlink:href="#a"/><use xlink:href="#b" x="-.004" y="60.763"/><use xlink:href="#19"/><use xlink:href="#20" y="2.171"/><use xlink:href="#21" y="6.513"/><use xlink:href="#22" y="8.684"/><use xlink:href="#23" y="10.855"/><use xlink:href="#24" y="13.026"/><use xlink:href="#25" y="17.368"/><use xlink:href="#26" y="19.539"/><use xlink:href="#27" y="21.71"/><use xlink:href="#28" y="23.881"/><use xlink:href="#29" y="26.052"/><use xlink:href="#30" y="30.394"/><use xlink:href="#31" y="32.565"/><use xlink:href="#32" y="34.736"/><use xlink:href="#33" y="36.907"/><use xlink:href="#34" y="41.249"/><use xlink:href="#35" y="43.42"/><use xlink:href="#36" y="45.591"/><use xlink:href="#37" y="47.762"/><use xlink:href="#38" y="54.275"/><use xlink:href="#39" y="56.446"/><use xlink:href="#40" y="58.617"/></svg><svg x="1496"><use xlink:href="#a"/><use xlink:href="#b" x="-.004" y="60.763"/><use xlink:href="#21" y="2.171"/><use xlink:href="#22" y="4.342"/><use xlink:href="#23" y="6.513"/><use xlink:href="#24" y="8.684"/><use xlink:href="#25" y="13.026"/><use xlink:href="#26" y="15.197"/><use xlink:href="#27" y="17.368"/><use xlink:href="#28" y="19.539"/><use xlink:href="#29" y="21.71"/><use xlink:href="#30" y="26.052"/><use xlink:href="#31" y="28.223"/><use xlink:href="#32" y="30.394"/><use xlink:href="#33" y="32.565"/><use xlink:href="#34" y="36.907"/><use xlink:href="#35" y="39.078"/><use xlink:href="#36" y="41.249"/><use xlink:href="#37" y="43.42"/><use xlink:href="#38" y="49.933"/><use xlink:href="#39" y="52.104"/><use xlink:href="#40" y="54.275"/><use xlink:href="#41" y="58.617"/></svg><svg x="1584"><use xlink:href="#a"/><use xlink:href="#b" x="-.004" y="60.763"/><use xlink:href="#37"/><use xlink:href="#38" y="6.513"/><use xlink:href="#39" y="8.684"/><use xlink:href="#40" y="10.855"/><use xlink:href="#41" y="15.197"/><use xlink:href="#42" y="17.368"/><use xlink:href="#43" y="19.539"/><text x="4.008" y="23.38" class="f">field:</text><text x="11.022" y="23.38" class="f">&quot;greeting&quot;</text><use xlink:href="#44" y="23.881"/><text y="27.722" class="f">[12:51:09]</text><text x="11.022" y="27.722" class="g">INFO</text><text x="16.032" y="27.722" class="f">(96401):</text><text x="25.05" y="27.722" class="i">node.finished</text><text x="4.008" y="29.893" class="f">type:</text><text x="10.02" y="29.893" class="f">&quot;node.finished&quot;</text><use xlink:href="#42" y="30.394"/><use xlink:href="#43" y="32.565"/><use xlink:href="#44" y="34.736"/><text y="38.577" class="f">[12:51:09]</text><text x="11.022" y="38.577" class="g">INFO</text><text x="16.032" y="38.577" class="f">(96401):</text><text x="25.05" y="38.577" class="i">run.finished</text><text x="4.008" y="40.748" class="f">type:</text><text x="10.02" y="40.748" class="f">&quot;run.finished&quot;</text><use xlink:href="#42" y="41.249"/><use xlink:href="#44" y="43.42"/><use xlink:href="#45" y="45.591"/><text y="49.432" class="f">[12:51:09]</text><text x="11.022" y="49.432" class="g">INFO</text><text x="16.032" y="49.432" class="f">(96401):</text><text x="25.05" y="49.432" class="i">run</text><text x="29.058" y="49.432" class="i">complete</text><text x="4.008" y="51.603" class="f">runId:</text><text x="11.022" y="51.603" class="f">&quot;e1cdbddc-890d-4a75-8b0b-5a6852b15c97&quot;</text><use xlink:href="#45" y="52.104"/><text x="4.008" y="55.945" class="f">finalState:</text><text x="16.032" y="55.945" class="f">{</text><text x="6.012" y="58.116" class="f">&quot;greeting&quot;:</text><text x="18.036" y="58.116" class="f">&quot;Hello,</text><text x="26.052" y="58.116" class="f">OpenExpertise!&quot;</text><text x="4.008" y="60.287" class="f">}</text></svg></svg></g></g></svg></svg>